<svg width="84" height="45" viewBox="0 0 84 45" fill="none" xmlns="http://www.w3.org/2000/svg">
<path fill-rule="evenodd" clip-rule="evenodd" d="M44.5278 1.0836C43.8081 3.07348 43.6034 3.24858 42.8326 2.53434C42.4579 2.18718 42.0944 1.96552 42.0252 2.04143C41.9557 2.11767 41.3496 3.54649 40.6783 5.21654C40.007 6.88658 39.3281 8.41426 39.1696 8.61162C38.6219 9.29348 34.246 18.2429 34.246 18.6812C34.246 19.004 33.3028 19.1707 30.7033 19.3073C28.755 19.4099 27.1296 19.4632 27.0917 19.4261C26.8782 19.2156 31.6188 9.48207 33.146 6.99556C34.4599 4.85655 34.8949 3.85958 34.7367 3.34946C34.3597 2.13252 33.4815 2.76579 31.9774 5.33901C31.1815 6.70035 29.0308 9.43889 27.1978 11.4251C25.3648 13.4112 23.3957 15.5975 22.822 16.2834C22.2486 16.9696 21.5453 17.531 21.2596 17.531C20.8206 17.531 20.874 17.1778 21.6049 15.2537C24.709 7.08125 25.3734 3.72193 24.1946 2.16018C23.7052 1.51207 23.6953 1.51207 23.2059 2.16018C22.6196 2.93684 22.561 3.69831 23.0873 3.69831C23.6304 3.69831 23.2544 6.7911 22.4077 9.28673C22.0264 10.4119 20.9162 13.2206 19.9407 15.5283L18.1677 19.724L11.2246 19.8151C7.4057 19.865 3.42302 19.7652 2.37404 19.5928C0.297514 19.2517 -0.501988 19.5577 0.315969 20.3806C0.579943 20.6464 2.27913 21.4042 4.09169 22.0641C9.24726 23.9423 12.9436 26.8948 15.5223 31.195C17.5778 34.6232 18.2876 38.2487 17.5804 41.7089C16.977 44.6624 16.9819 44.7464 17.7725 44.9579C18.5941 45.1779 18.9401 44.5696 19.2684 42.3294C19.4042 41.4019 20.2346 38.4012 21.1136 35.6613C21.9925 32.9214 22.7116 30.5132 22.7116 30.3091C22.7116 29.8148 25.6957 22.2011 26.1001 21.664C26.3163 21.3765 27.4651 21.2422 29.711 21.2422C32.6958 21.2422 32.9881 21.2976 32.827 21.8327C32.7291 22.1576 32.3224 23.3644 31.923 24.5152C31.1756 26.6687 31.2207 27.5209 32.1006 27.8668C32.9189 28.1879 33.5128 27.4052 34.485 24.7247C35.5745 21.72 36.2346 20.9049 37.5782 20.9049H38.5777L38.3905 22.6761C37.9245 27.0864 37.536 33.443 37.7139 33.7379C37.8217 33.9167 38.1806 34.0628 38.5111 34.0628C39.2292 34.0628 39.5084 33.1677 39.5143 30.8435C39.5206 28.5527 40.4812 21.1434 40.8174 20.7942C40.9653 20.6403 41.4913 20.5644 41.986 20.6255C42.8174 20.7277 42.8899 20.8603 42.9473 22.3799C42.9994 23.7649 43.1763 24.1768 44.0704 24.9946C45.6091 26.4022 48.0132 26.1647 49.3875 24.4696C49.9985 23.7163 50.3943 23.8165 50.3943 24.7244C50.3943 26.1782 52.1205 29.1235 53.3757 29.8114C55.4206 30.9326 56.6779 30.4157 59.8779 27.1397L62.6293 24.3229L66.9752 23.8215C69.3655 23.5459 73.9163 23.3232 77.0883 23.3263C80.2602 23.3296 83.1152 23.3175 83.4322 23.2993C84.2386 23.2534 84.1661 22.0135 83.3412 21.7456C82.0296 21.3195 73.2203 21.3515 68.8494 21.7982C66.4024 22.0486 64.1779 22.2537 63.906 22.2544C63.5013 22.2557 63.4311 21.802 63.5191 19.7507C63.6124 17.5776 63.5359 17.1521 62.9424 16.5445C60.741 14.2908 55.3376 17.6349 55.3376 21.2513C55.3376 22.6204 56.8071 24.1505 58.4189 24.4602C59.0804 24.5871 59.6218 24.8144 59.6218 24.9653C59.6218 25.1157 59.2474 25.6943 58.7903 26.2507C57.6768 27.6056 55.2387 28.7973 54.1515 28.5179C53.0066 28.2237 52.0598 25.9535 52.0028 23.3657C51.9626 21.5523 52.1208 21.0482 53.6292 18.1788C55.189 15.2118 56.9969 10.3029 57.4263 7.86904C57.5627 7.0961 57.4497 6.65885 57.0074 6.24927C56.4353 5.71924 56.3454 5.75838 55.3801 6.9571C54.0971 8.5509 51.1608 14.4089 50.8817 15.9322L50.6721 17.0762L48.9393 16.9288C47.1122 16.7739 45.768 17.2523 44.7285 18.4285C44.3024 18.9106 43.8216 19.0287 42.6695 18.9349C41.2735 18.8212 41.1667 18.7459 41.1667 17.8721C41.1667 15.8633 43.5642 8.36803 45.1069 5.55392C46.4574 3.09035 46.8891 1.52152 46.4482 0.678398C45.8998 -0.370863 44.9839 -0.17788 44.5278 1.0836ZM54.0576 14.0411C53.6901 14.7544 53.383 15.2294 53.3748 15.0965C53.3514 14.7085 54.454 12.4656 54.5967 12.6113C54.6679 12.6842 54.4254 13.3276 54.0576 14.0411ZM39.4998 16.4973C39.0997 18.7888 39.048 18.8806 38.1506 18.8806H37.2173L38.4347 16.362C39.1043 14.977 39.7114 13.9045 39.7839 13.9787C39.8564 14.0529 39.7288 15.1862 39.4998 16.4973ZM26.0506 17.3731C25.0597 19.5411 25.0442 19.5553 23.691 19.5553H22.3286L24.4974 17.1224C25.6904 15.7847 26.6834 14.532 26.7045 14.339C26.7256 14.1464 26.8116 14.2591 26.8953 14.5897C26.9793 14.9204 26.5993 16.1727 26.0506 17.3731ZM62.2032 18.5691C62.3284 19.8887 61.7092 22.3023 61.1506 22.6711C60.6948 22.972 58.2288 23.0081 57.5067 22.7244C56.6258 22.3782 56.8512 20.4851 57.8916 19.4878C58.9301 18.4926 61.2752 17.1795 61.7639 17.3198C61.9452 17.3718 62.1429 17.9339 62.2032 18.5691ZM50.0634 19.471C50.0611 21.7925 47.825 24.2743 45.7333 24.2773C44.3983 24.2794 43.9893 22.4211 44.9994 20.9447C45.7235 19.8863 48.3655 18.2058 49.3054 18.2058C49.9632 18.2058 50.0647 18.3748 50.0634 19.471ZM23.8522 22.3354C23.7292 22.7547 23.0345 24.692 22.3085 26.6404C21.5825 28.5888 20.5978 31.4329 20.12 32.9609C19.6421 34.4889 19.1652 35.7413 19.0598 35.7443C18.8522 35.75 18.7546 35.5581 16.9213 31.5324C15.4343 28.2676 12.146 24.7085 8.89463 22.8455L6.77691 21.6319L15.4264 21.6026L24.0763 21.5732L23.8522 22.3354Z" fill="black"/>
</svg>
