<svg width="229" height="44" viewBox="0 0 229 44" fill="none" xmlns="http://www.w3.org/2000/svg">
<path d="M75.032 29.224H80.888V31H72.848V14.272H75.032V29.224ZM92.5914 14.272V31H90.4074V14.272H92.5914ZM116.666 31H114.482L105.698 17.68V31H103.514V14.248H105.698L114.482 27.544V14.248H116.666V31ZM136.661 31L129.773 23.368V31H127.589V14.272H129.773V22.024L136.685 14.272H139.445L131.861 22.648L139.517 31H136.661ZM151.34 16.048V21.64H157.436V23.44H151.34V29.2H158.156V31H149.156V14.248H158.156V16.048H151.34ZM173.868 14.272C175.693 14.272 177.269 14.616 178.597 15.304C179.941 15.976 180.965 16.944 181.669 18.208C182.389 19.472 182.749 20.96 182.749 22.672C182.749 24.384 182.389 25.872 181.669 27.136C180.965 28.384 179.941 29.344 178.597 30.016C177.269 30.672 175.693 31 173.868 31H168.661V14.272H173.868ZM173.868 29.2C176.029 29.2 177.677 28.632 178.812 27.496C179.949 26.344 180.517 24.736 180.517 22.672C180.517 20.592 179.941 18.968 178.789 17.8C177.653 16.632 176.013 16.048 173.868 16.048H170.845V29.2H173.868ZM195.013 14.272V31H192.829V14.272H195.013ZM219.087 31H216.903L208.119 17.68V31H205.935V14.248H208.119L216.903 27.544V14.248H219.087V31Z" fill="black"/>
<path d="M40.0198 0H3.98016C1.782 0 0 1.782 0 3.98016V40.0197C0 42.218 1.782 44 3.98016 44H40.0197C42.218 44 44 42.218 44 40.0197V3.98016C44 1.782 42.218 0 40.0198 0ZM13.6155 37.9925C13.6155 38.6322 13.0969 39.1508 12.4572 39.1508H7.52665C6.88692 39.1508 6.36837 38.6322 6.36837 37.9925V17.3239C6.36837 16.6842 6.88692 16.1656 7.52665 16.1656H12.4572C13.0969 16.1656 13.6155 16.6842 13.6155 17.3239V37.9925ZM9.99192 14.2173C7.40502 14.2173 5.30787 12.1202 5.30787 9.53326C5.30787 6.94636 7.40502 4.84921 9.99192 4.84921C12.5788 4.84921 14.676 6.94636 14.676 9.53326C14.676 12.1202 12.5789 14.2173 9.99192 14.2173ZM39.3823 38.0858C39.3823 38.6739 38.9054 39.1508 38.3173 39.1508H33.0265C32.4384 39.1508 31.9615 38.6739 31.9615 38.0858V28.3911C31.9615 26.9448 32.3857 22.0536 28.182 22.0536C24.9213 22.0536 24.2599 25.4015 24.1271 26.9039V38.0858C24.1271 38.6739 23.6503 39.1508 23.0621 39.1508H17.945C17.3568 39.1508 16.88 38.6739 16.88 38.0858V17.2306C16.88 16.6425 17.3568 16.1656 17.945 16.1656H23.0621C23.6502 16.1656 24.1271 16.6425 24.1271 17.2306V19.0338C25.3362 17.2193 27.133 15.8188 30.9588 15.8188C39.4308 15.8188 39.3823 23.7337 39.3823 28.0826V38.0858Z" fill="black"/>
</svg>
