<svg width="207" height="44" viewBox="0 0 207 44" fill="none" xmlns="http://www.w3.org/2000/svg">
<path d="M88.816 14.392V31H86.632V18.616L81.112 31H79.576L74.032 18.592V31H71.848V14.392H74.2L80.344 28.12L86.488 14.392H88.816ZM101.904 16.048V21.64H108V23.44H101.904V29.2H108.72V31H99.7199V14.248H108.72V16.048H101.904ZM124.433 14.272C126.257 14.272 127.833 14.616 129.161 15.304C130.505 15.976 131.529 16.944 132.233 18.208C132.953 19.472 133.313 20.96 133.313 22.672C133.313 24.384 132.953 25.872 132.233 27.136C131.529 28.384 130.505 29.344 129.161 30.016C127.833 30.672 126.257 31 124.433 31H119.225V14.272H124.433ZM124.433 29.2C126.593 29.2 128.241 28.632 129.377 27.496C130.513 26.344 131.081 24.736 131.081 22.672C131.081 20.592 130.505 18.968 129.353 17.8C128.217 16.632 126.577 16.048 124.433 16.048H121.409V29.2H124.433ZM145.577 14.272V31H143.393V14.272H145.577ZM158.636 14.272V24.856C158.636 26.344 158.996 27.448 159.716 28.168C160.452 28.888 161.468 29.248 162.764 29.248C164.044 29.248 165.044 28.888 165.764 28.168C166.5 27.448 166.868 26.344 166.868 24.856V14.272H169.052V24.832C169.052 26.224 168.772 27.4 168.212 28.36C167.652 29.304 166.892 30.008 165.932 30.472C164.988 30.936 163.924 31.168 162.74 31.168C161.556 31.168 160.484 30.936 159.524 30.472C158.58 30.008 157.828 29.304 157.268 28.36C156.724 27.4 156.452 26.224 156.452 24.832V14.272H158.636ZM196.863 14.392V31H194.679V18.616L189.159 31H187.623L182.079 18.592V31H179.895V14.392H182.247L188.391 28.12L194.535 14.392H196.863Z" fill="black"/>
<g clip-path="url(#clip0)">
<path d="M14.6593 39.094C14.6593 40.3682 13.7042 40.8943 12.6463 40.3682L1.22833 34.661C0.883667 34.4978 0.594 34.2247 0.3575 33.8415C0.121 33.4583 0 33.077 0 32.7012V4.78501C0 3.74368 0.625167 3.27251 2.03867 3.97651L14.586 10.2465C14.7675 10.428 14.6337 9.18135 14.6593 39.094ZM16.2305 12.8407L29.3425 34.0487L16.2305 27.5348V12.8407ZM44 13.2825V39.094C44 39.5028 43.8863 39.8328 43.6553 40.0858C43.4262 40.3388 43.1145 40.4653 42.7222 40.4653C42.3298 40.4653 41.9448 40.359 41.569 40.1463L30.7413 34.7582L44 13.2825ZM43.9267 10.3437C43.9267 10.3932 41.8275 13.8178 37.6292 20.6158C33.4308 27.4138 30.9705 31.3958 30.25 32.5545L20.6745 17.028L28.6293 4.12318C29.062 3.41185 29.9493 3.28718 30.5452 3.58418L43.8295 10.197C43.8937 10.2282 43.9267 10.2777 43.9267 10.3437Z" fill="black"/>
</g>
<defs>
<clipPath id="clip0">
<rect width="44" height="44" fill="white"/>
</clipPath>
</defs>
</svg>
