<svg width="1430" height="320" viewBox="0 0 1430 320" fill="none" xmlns="http://www.w3.org/2000/svg">
<g clip-path="url(#clip0)">
<path d="M1430 96L1382 85.3C1334 75 1238 53 1142 80C1046 107 950 181 854 197.3C758 213 662 171 566 170.7C470 171 374 213 278 218.7C182 224 86 192 38 176L-10 160V-7.62939e-06H38C86 -7.62939e-06 182 -7.62939e-06 278 -7.62939e-06C374 -7.62939e-06 470 -7.62939e-06 566 -7.62939e-06C662 -7.62939e-06 758 -7.62939e-06 854 -7.62939e-06C950 -7.62939e-06 1046 -7.62939e-06 1142 -7.62939e-06C1238 -7.62939e-06 1334 -7.62939e-06 1382 -7.62939e-06H1430V96Z" fill="#F2F2F2"/>
</g>
<defs>
<clipPath id="clip0">
<rect width="1440" height="320" fill="white" transform="translate(1430 320) rotate(-180)"/>
</clipPath>
</defs>
</svg>
