<svg width="258" height="14" viewBox="0 0 258 14" fill="none" xmlns="http://www.w3.org/2000/svg">
<path d="M10.6613 0.454L6.57533 8.266V13H4.93733V8.266L0.833333 0.454H2.65133L5.74733 6.808L8.84333 0.454H10.6613ZM22.7571 0.454V13H21.1191V0.454H22.7571ZM44.1427 13H42.5047L35.9167 3.01V13H34.2787V0.436H35.9167L42.5047 10.408V0.436H44.1427V13ZM62.469 13L57.303 7.276V13H55.665V0.454H57.303V6.268L62.487 0.454H64.557L58.869 6.736L64.611 13H62.469ZM82.5864 10.21H77.1144L76.1064 13H74.3784L78.9144 0.526H80.8044L85.3224 13H83.5944L82.5864 10.21ZM82.1184 8.878L79.8504 2.542L77.5824 8.878H82.1184ZM116.974 10.21H111.502L110.494 13H108.766L113.302 0.526H115.192L119.71 13H117.982L116.974 10.21ZM116.506 8.878L114.238 2.542L111.97 8.878H116.506ZM134.323 0.454C135.691 0.454 136.873 0.711999 137.869 1.228C138.877 1.732 139.645 2.458 140.173 3.406C140.713 4.354 140.983 5.47 140.983 6.754C140.983 8.038 140.713 9.154 140.173 10.102C139.645 11.038 138.877 11.758 137.869 12.262C136.873 12.754 135.691 13 134.323 13H130.417V0.454H134.323ZM134.323 11.65C135.943 11.65 137.179 11.224 138.031 10.372C138.883 9.508 139.309 8.302 139.309 6.754C139.309 5.194 138.877 3.976 138.013 3.1C137.161 2.224 135.931 1.786 134.323 1.786H132.055V11.65H134.323ZM153.512 1.786V5.98H158.084V7.33H153.512V11.65H158.624V13H151.874V0.436H158.624V1.786H153.512ZM173.81 13.126C172.982 13.126 172.238 12.982 171.578 12.694C170.93 12.394 170.42 11.986 170.048 11.47C169.676 10.942 169.484 10.336 169.472 9.652H171.218C171.278 10.24 171.518 10.738 171.938 11.146C172.37 11.542 172.994 11.74 173.81 11.74C174.59 11.74 175.202 11.548 175.646 11.164C176.102 10.768 176.33 10.264 176.33 9.652C176.33 9.172 176.198 8.782 175.934 8.482C175.67 8.182 175.34 7.954 174.944 7.798C174.548 7.642 174.014 7.474 173.342 7.294C172.514 7.078 171.848 6.862 171.344 6.646C170.852 6.43 170.426 6.094 170.066 5.638C169.718 5.17 169.544 4.546 169.544 3.766C169.544 3.082 169.718 2.476 170.066 1.948C170.414 1.42 170.9 1.012 171.524 0.723999C172.16 0.435999 172.886 0.291999 173.702 0.291999C174.878 0.291999 175.838 0.586 176.582 1.174C177.338 1.762 177.764 2.542 177.86 3.514H176.06C176 3.034 175.748 2.614 175.304 2.254C174.86 1.882 174.272 1.696 173.54 1.696C172.856 1.696 172.298 1.876 171.866 2.236C171.434 2.584 171.218 3.076 171.218 3.712C171.218 4.168 171.344 4.54 171.596 4.828C171.86 5.116 172.178 5.338 172.55 5.494C172.934 5.638 173.468 5.806 174.152 5.998C174.98 6.226 175.646 6.454 176.15 6.682C176.654 6.898 177.086 7.24 177.446 7.708C177.806 8.164 177.986 8.788 177.986 9.58C177.986 10.192 177.824 10.768 177.5 11.308C177.176 11.848 176.696 12.286 176.06 12.622C175.424 12.958 174.674 13.126 173.81 13.126ZM190.765 1.786V5.98H195.337V7.33H190.765V11.65H195.877V13H189.127V0.436H195.877V1.786H190.765ZM211.063 13.126C210.235 13.126 209.491 12.982 208.831 12.694C208.183 12.394 207.673 11.986 207.301 11.47C206.929 10.942 206.737 10.336 206.725 9.652H208.471C208.531 10.24 208.771 10.738 209.191 11.146C209.623 11.542 210.247 11.74 211.063 11.74C211.843 11.74 212.455 11.548 212.899 11.164C213.355 10.768 213.583 10.264 213.583 9.652C213.583 9.172 213.451 8.782 213.187 8.482C212.923 8.182 212.593 7.954 212.197 7.798C211.801 7.642 211.267 7.474 210.595 7.294C209.767 7.078 209.101 6.862 208.597 6.646C208.105 6.43 207.679 6.094 207.319 5.638C206.971 5.17 206.797 4.546 206.797 3.766C206.797 3.082 206.971 2.476 207.319 1.948C207.667 1.42 208.153 1.012 208.777 0.723999C209.413 0.435999 210.139 0.291999 210.955 0.291999C212.131 0.291999 213.091 0.586 213.835 1.174C214.591 1.762 215.017 2.542 215.113 3.514H213.313C213.253 3.034 213.001 2.614 212.557 2.254C212.113 1.882 211.525 1.696 210.793 1.696C210.109 1.696 209.551 1.876 209.119 2.236C208.687 2.584 208.471 3.076 208.471 3.712C208.471 4.168 208.597 4.54 208.849 4.828C209.113 5.116 209.431 5.338 209.803 5.494C210.187 5.638 210.721 5.806 211.405 5.998C212.233 6.226 212.899 6.454 213.403 6.682C213.907 6.898 214.339 7.24 214.699 7.708C215.059 8.164 215.239 8.788 215.239 9.58C215.239 10.192 215.077 10.768 214.753 11.308C214.429 11.848 213.949 12.286 213.313 12.622C212.677 12.958 211.927 13.126 211.063 13.126ZM233.796 10.21H228.324L227.316 13H225.588L230.124 0.526H232.014L236.532 13H234.804L233.796 10.21ZM233.328 8.878L231.06 2.542L228.792 8.878H233.328ZM257.102 13H255.464L248.876 3.01V13H247.238V0.436H248.876L255.464 10.408V0.436H257.102V13Z" fill="black"/>
</svg>
